<svg width="75" height="50" viewBox="0 0 75 50" fill="none" xmlns="http://www.w3.org/2000/svg">
<path d="M15.85 13.5H22.975C24.825 13.5 26.4583 13.875 27.875 14.625C29.2917 15.3583 30.3917 16.3917 31.175 17.725C31.9583 19.0417 32.35 20.55 32.35 22.25C32.35 23.95 31.9583 25.4667 31.175 26.8C30.3917 28.1167 29.2917 29.15 27.875 29.9C26.4583 30.6333 24.825 31 22.975 31H15.85V13.5ZM22.875 29.4C24.4083 29.4 25.75 29.1 26.9 28.5C28.05 27.8833 28.9417 27.0417 29.575 25.975C30.2083 24.8917 30.525 23.65 30.525 22.25C30.525 20.85 30.2083 19.6167 29.575 18.55C28.9417 17.4667 28.05 16.625 26.9 16.025C25.75 15.4083 24.4083 15.1 22.875 15.1H17.7V29.4H22.875ZM40.7293 17.75C42.446 17.75 43.7626 18.1833 44.6793 19.05C45.596 19.9 46.0543 21.1667 46.0543 22.85V31H44.3543V28.95C43.9543 29.6333 43.3626 30.1667 42.5793 30.55C41.8126 30.9333 40.896 31.125 39.8293 31.125C38.3626 31.125 37.196 30.775 36.3293 30.075C35.4626 29.375 35.0293 28.45 35.0293 27.3C35.0293 26.1833 35.4293 25.2833 36.2293 24.6C37.046 23.9167 38.3376 23.575 40.1043 23.575H44.2793V22.775C44.2793 21.6417 43.9626 20.7833 43.3293 20.2C42.696 19.6 41.771 19.3 40.5543 19.3C39.721 19.3 38.921 19.4417 38.1543 19.725C37.3876 19.9917 36.7293 20.3667 36.1793 20.85L35.3793 19.525C36.046 18.9583 36.846 18.525 37.7793 18.225C38.7126 17.9083 39.696 17.75 40.7293 17.75ZM40.1043 29.725C41.1043 29.725 41.9626 29.5 42.6793 29.05C43.396 28.5833 43.9293 27.9167 44.2793 27.05V24.9H40.1543C37.9043 24.9 36.7793 25.6833 36.7793 27.25C36.7793 28.0167 37.071 28.625 37.6543 29.075C38.2376 29.5083 39.0543 29.725 40.1043 29.725ZM59.3434 30.2C59.01 30.5 58.5934 30.7333 58.0934 30.9C57.61 31.05 57.1017 31.125 56.5684 31.125C55.335 31.125 54.385 30.7917 53.7184 30.125C53.0517 29.4583 52.7184 28.5167 52.7184 27.3V19.35H50.3684V17.85H52.7184V14.975H54.4934V17.85H58.4934V19.35H54.4934V27.2C54.4934 27.9833 54.685 28.5833 55.0684 29C55.4684 29.4 56.035 29.6 56.7684 29.6C57.135 29.6 57.485 29.5417 57.8184 29.425C58.1684 29.3083 58.4684 29.1417 58.7184 28.925L59.3434 30.2ZM67.1746 17.75C68.8913 17.75 70.2079 18.1833 71.1246 19.05C72.0413 19.9 72.4996 21.1667 72.4996 22.85V31H70.7996V28.95C70.3996 29.6333 69.8079 30.1667 69.0246 30.55C68.2579 30.9333 67.3413 31.125 66.2746 31.125C64.8079 31.125 63.6413 30.775 62.7746 30.075C61.9079 29.375 61.4746 28.45 61.4746 27.3C61.4746 26.1833 61.8746 25.2833 62.6746 24.6C63.4913 23.9167 64.7829 23.575 66.5496 23.575H70.7246V22.775C70.7246 21.6417 70.4079 20.7833 69.7746 20.2C69.1413 19.6 68.2163 19.3 66.9996 19.3C66.1663 19.3 65.3663 19.4417 64.5996 19.725C63.8329 19.9917 63.1746 20.3667 62.6246 20.85L61.8246 19.525C62.4913 18.9583 63.2913 18.525 64.2246 18.225C65.1579 17.9083 66.1413 17.75 67.1746 17.75ZM66.5496 29.725C67.5496 29.725 68.4079 29.5 69.1246 29.05C69.8413 28.5833 70.3746 27.9167 70.7246 27.05V24.9H66.5996C64.3496 24.9 63.2246 25.6833 63.2246 27.25C63.2246 28.0167 63.5163 28.625 64.0996 29.075C64.6829 29.5083 65.4996 29.725 66.5496 29.725Z" fill="url(#paint0_radial)"/>
<path d="M18.284 38.8H19.136V42.004C18.744 42.348 18.28 42.612 17.744 42.796C17.208 42.98 16.644 43.072 16.052 43.072C15.212 43.072 14.456 42.888 13.784 42.52C13.112 42.152 12.584 41.644 12.2 40.996C11.816 40.34 11.624 39.608 11.624 38.8C11.624 37.992 11.816 37.264 12.2 36.616C12.584 35.96 13.112 35.448 13.784 35.08C14.456 34.712 15.216 34.528 16.064 34.528C16.704 34.528 17.292 34.632 17.828 34.84C18.364 35.04 18.816 35.34 19.184 35.74L18.632 36.304C17.968 35.648 17.124 35.32 16.1 35.32C15.42 35.32 14.804 35.472 14.252 35.776C13.708 36.072 13.28 36.488 12.968 37.024C12.656 37.552 12.5 38.144 12.5 38.8C12.5 39.456 12.656 40.048 12.968 40.576C13.28 41.104 13.708 41.52 14.252 41.824C14.796 42.128 15.408 42.28 16.088 42.28C16.952 42.28 17.684 42.064 18.284 41.632V38.8ZM22.2853 37.924C22.4853 37.5 22.7813 37.18 23.1733 36.964C23.5733 36.748 24.0653 36.64 24.6493 36.64V37.468L24.4453 37.456C23.7812 37.456 23.2613 37.66 22.8853 38.068C22.5093 38.476 22.3213 39.048 22.3213 39.784V43H21.4693V36.688H22.2853V37.924ZM26.1919 36.688H27.0439V43H26.1919V36.688ZM26.6239 35.308C26.4479 35.308 26.2999 35.248 26.1799 35.128C26.0599 35.008 25.9999 34.864 25.9999 34.696C25.9999 34.536 26.0599 34.396 26.1799 34.276C26.2999 34.156 26.4479 34.096 26.6239 34.096C26.7999 34.096 26.9479 34.156 27.0679 34.276C27.1879 34.388 27.2479 34.524 27.2479 34.684C27.2479 34.86 27.1879 35.008 27.0679 35.128C26.9479 35.248 26.7999 35.308 26.6239 35.308ZM35.1746 34.096V43H34.3586V41.752C34.1026 42.176 33.7626 42.5 33.3386 42.724C32.9226 42.948 32.4506 43.06 31.9226 43.06C31.3306 43.06 30.7946 42.924 30.3146 42.652C29.8346 42.38 29.4586 42 29.1866 41.512C28.9146 41.024 28.7786 40.468 28.7786 39.844C28.7786 39.22 28.9146 38.664 29.1866 38.176C29.4586 37.688 29.8346 37.312 30.3146 37.048C30.7946 36.776 31.3306 36.64 31.9226 36.64C32.4346 36.64 32.8946 36.748 33.3026 36.964C33.7186 37.172 34.0586 37.48 34.3226 37.888V34.096H35.1746ZM31.9946 42.304C32.4346 42.304 32.8306 42.204 33.1826 42.004C33.5426 41.796 33.8226 41.504 34.0226 41.128C34.2306 40.752 34.3346 40.324 34.3346 39.844C34.3346 39.364 34.2306 38.936 34.0226 38.56C33.8226 38.184 33.5426 37.896 33.1826 37.696C32.8306 37.488 32.4346 37.384 31.9946 37.384C31.5466 37.384 31.1426 37.488 30.7826 37.696C30.4306 37.896 30.1506 38.184 29.9426 38.56C29.7426 38.936 29.6426 39.364 29.6426 39.844C29.6426 40.324 29.7426 40.752 29.9426 41.128C30.1506 41.504 30.4306 41.796 30.7826 42.004C31.1426 42.204 31.5466 42.304 31.9946 42.304Z" fill="#0047AB"/>
<circle cx="25" cy="25" r="24" stroke="#00008B" stroke-width="2"/>
<circle cx="25" cy="25" r="24" stroke="white" stroke-opacity="0.2" stroke-width="2"/>
<circle cx="25" cy="25" r="24" stroke="#00006E" stroke-opacity="0.2" stroke-width="2"/>
<path d="M6 40C7.66667 27.3334 16.5 -1.5 29 1.5" stroke="#292998" stroke-width="1.5"/>
<defs>
<radialGradient id="paint0_radial" cx="0" cy="0" r="1" gradientUnits="userSpaceOnUse" gradientTransform="translate(56 -11.5) rotate(82.1645) scale(55.0136 113.695)">
<stop offset="0.514218" stop-color="#00008B"/>
<stop offset="1" stop-color="#280D3E" stop-opacity="0"/>
</radialGradient>
</defs>
</svg>
