<svg width="24" height="24" viewBox="0 0 24 24" fill="none" xmlns="http://www.w3.org/2000/svg">
<path d="M23.5327 6.29395L12.3778 0.71653C12.14 0.597501 11.8599 0.597501 11.622 0.71653L0.467148 6.29395C0.180847 6.43714 0 6.72966 0 7.04982V22.3877C0 22.8544 0.378341 23.2328 0.845085 23.2328H3.63383C4.1005 23.2328 4.47892 22.8545 4.47892 22.3877V9.28924H19.5211V22.3877C19.5211 22.8544 19.8994 23.2328 20.3662 23.2328H23.1549C23.6216 23.2328 24 22.8545 24 22.3877V7.04982C23.9998 6.72966 23.819 6.43714 23.5327 6.29395ZM22.3097 21.5427H21.2112V8.44416C21.2112 7.97749 20.8328 7.59907 20.3661 7.59907H3.63375C3.16709 7.59907 2.78867 7.97741 2.78867 8.44416V21.5427H1.69009V7.57208L11.9999 2.41721L22.3097 7.57208V21.5427Z" fill="#91926B"/>
<path d="M17.5773 10.6413H11.9999C11.6732 10.6413 11.4084 10.9061 11.4084 11.2328V16.2187H6.4225C6.0958 16.2187 5.83099 16.4835 5.83099 16.8102V22.3876C5.83099 22.7143 6.0958 22.9792 6.4225 22.9792H17.5773C17.904 22.9792 18.1688 22.7143 18.1688 22.3876V11.2329C18.1689 10.9061 17.904 10.6413 17.5773 10.6413ZM12.5914 18.2385L13.952 19.5991L12.5914 20.9596V18.2385ZM11.4084 20.9595L10.0479 19.599L11.4084 18.2384V20.9595ZM13.4281 17.4018H16.1491L14.7886 18.7624L13.4281 17.4018ZM13.4281 16.2187L14.7887 14.8582L16.1492 16.2187H13.4281ZM16.9858 15.3821L15.6254 14.0216L16.9858 12.661V15.3821V15.3821ZM14.7887 13.185L13.4281 11.8244H16.1491L14.7887 13.185ZM13.952 14.0216L12.5914 15.3821V12.6611L13.952 14.0216ZM9.21117 18.7624L7.85062 17.4018H10.5716L9.21117 18.7624ZM8.37457 19.599L7.01402 20.9595V18.2385L8.37457 19.599ZM9.21117 20.4357L10.5717 21.7962H7.8507L9.21117 20.4357ZM14.7886 20.4357L16.1491 21.7962H13.4281L14.7886 20.4357ZM15.6253 19.599L16.9858 18.2384V20.9594L15.6253 19.599Z" fill="#91926B"/>
</svg>
